<?xml version="1.0" encoding="utf-8"?>
<svg width="90" height="90" viewBox="19.902 18.207 30.021 30.012" xmlns="http://www.w3.org/2000/svg">
  <g id="surface1" style="" transform="matrix(1, -0.00026500000967644155, 0, 1, 5.213197231292725, 3.698991060256958)">
    <rect x="0" y="0" width="80" height="80" style="fill:transparent;fill-opacity:1;stroke:none;"/>
    <path style=" stroke:none;fill-rule:nonzero;fill:#fff;fill-opacity:1;" d="M 22.75 18.75 C 26.058594 18.75 28.890625 20.835938 30 23.761719 C 31.109375 20.835938 33.941406 18.75 37.25 18.75 L 38 18.75 L 38 15.5 C 38 15.296875 37.878906 15.113281 37.691406 15.039063 C 37.507813 14.960938 37.289063 15.003906 37.148438 15.148438 L 35.292969 17 L 24.707031 17 L 22.851563 15.148438 C 22.710938 15.003906 22.496094 14.960938 22.308594 15.039063 C 22.121094 15.113281 22 15.296875 22 15.5 L 22 18.75 L 22.75 18.75 "/>
    <path style=" stroke:none;fill-rule:nonzero;fill:#fff;fill-opacity:1;" d="M 26 23.5 C 25.449219 23.5 25 23.949219 25 24.5 C 25 25.050781 25.449219 25.5 26 25.5 C 26.550781 25.5 27 25.050781 27 24.5 C 27 23.949219 26.550781 23.5 26 23.5 "/>
    <path style=" stroke:none;fill-rule:nonzero;fill:#fff;fill-opacity:1;" d="M 22.5 34 C 21.671875 34 21 33.328125 21 32.5 C 21 32.222656 21.222656 32 21.5 32 C 21.777344 32 22 32.222656 22 32.5 C 22 32.777344 22.222656 33 22.5 33 C 22.777344 33 23 32.777344 23 32.5 C 23 32.222656 23.222656 32 23.5 32 C 23.777344 32 24 32.222656 24 32.5 C 24 33.328125 23.328125 34 22.5 34 Z M 22 38 C 21.171875 38 20.5 37.328125 20.5 36.5 C 20.5 36.222656 20.722656 36 21 36 C 21.277344 36 21.5 36.222656 21.5 36.5 C 21.5 36.777344 21.722656 37 22 37 C 22.277344 37 22.5 36.777344 22.5 36.5 C 22.5 36.222656 22.722656 36 23 36 C 23.277344 36 23.5 36.222656 23.5 36.5 C 23.5 37.328125 22.828125 38 22 38 Z M 25.5 35 L 25.5 31.75 C 25.5 30.234375 24.265625 29 22.75 29 C 21.234375 29 20 30.234375 20 31.75 L 20 40.980469 C 23.074219 40.722656 25.5 38.140625 25.5 35 "/>
    <path style=" stroke:none;fill-rule:nonzero;fill:#fff;fill-opacity:1;" d="M 34 26.5 C 32.898438 26.5 32 25.601563 32 24.5 C 32 23.398438 32.898438 22.5 34 22.5 C 35.101563 22.5 36 23.398438 36 24.5 C 36 25.601563 35.101563 26.5 34 26.5 Z M 26 26.5 C 24.898438 26.5 24 25.601563 24 24.5 C 24 23.398438 24.898438 22.5 26 22.5 C 27.101563 22.5 28 23.398438 28 24.5 C 28 25.601563 27.101563 26.5 26 26.5 Z M 37.25 19.75 C 33.527344 19.75 30.5 22.777344 30.5 26.5 C 30.5 26.777344 30.277344 27 30 27 C 29.722656 27 29.5 26.777344 29.5 26.5 C 29.5 22.777344 26.472656 19.75 22.75 19.75 L 22 19.75 L 22 28.074219 C 22.242188 28.027344 22.492188 28 22.75 28 C 24.816406 28 26.5 29.683594 26.5 31.75 L 26.5 35 C 26.5 37.976563 24.628906 40.519531 22 41.53125 L 22 43.5 C 22 43.777344 22.222656 44 22.5 44 C 31.046875 44 38 37.046875 38 28.5 L 38 19.75 L 37.25 19.75 "/>
    <path style=" stroke:none;fill-rule:nonzero;fill:#fff;fill-opacity:1;" d="M 34 23.5 C 33.449219 23.5 33 23.949219 33 24.5 C 33 25.050781 33.449219 25.5 34 25.5 C 34.550781 25.5 35 25.050781 35 24.5 C 35 23.949219 34.550781 23.5 34 23.5 "/>
  </g>
</svg>